<?xml version="1.0" standalone="no"?><!DOCTYPE svg PUBLIC "-//W3C//DTD SVG 1.1//EN" "http://www.w3.org/Graphics/SVG/1.1/DTD/svg11.dtd"><svg class="icon" width="200px" height="200.00px" viewBox="0 0 1024 1024" version="1.1" xmlns="http://www.w3.org/2000/svg"><path fill="#ffffff" d="M865.678338 755.00412l-32.873538-133.380863c-34.760249 76.203931-101.690517 166.893964-229.475204 251.028477l88.707388 80.457025C785.0934 885.123212 836.993938 814.771282 865.678338 755.00412zM886.176332 838.275222c-33.065407 50.077783-80.936697 103.257446-149.849611 154.998093l9.209707 8.378275c28.076816 25.454607 69.456542 29.611767 101.97832 10.169052l16.2449-9.689379c32.553757-19.410737 48.542832-57.816495 39.461037-94.591367L886.176332 838.275222zM806.230958 514.080738l-27.30934-110.868246c61.87772-78.186577 86.500896-156.94876 54.906483-209.968532-13.942473-23.344049-58.232211-97.66127-80.840763-135.395487-7.322996 100.507325-136.354831 228.803663-280.576287 314.920821-116.912116 69.808301-240.6036 111.475831-330.781983 111.475831-27.6611 0-49.821958-3.837378-67.537853-9.945205 23.50394 39.429059 62.932999 105.463938 75.88415 127.113146 31.62639 53.019773 112.659022 68.689066 210.799964 51.356909l70.00017 63.444649c116.592335-65.267404 187.423937-136.003072 230.434548-199.831459 44.097869-33.321232 82.055933-69.552476 112.051437-106.103501-23.823722 92.416853-94.495433 228.835641-296.853166 347.282708l81.991976 74.349199C741.603116 715.958799 792.7042 588.20609 806.230958 514.080738zM163.086406 424.765766 509.953398 15.893141c-61.845742 17.044354-130.85459 47.199749-198.296508 87.492218C224.804235 155.22194 151.510316 217.067682 105.269911 277.60232c-39.58895 51.67669-54.522746 97.117641-39.972687 121.389057 10.20103 17.172267 37.286523 26.637799 76.299866 26.637799C148.536348 425.629176 155.731432 425.37335 163.086406 424.765766zM442.479502 322.435686c178.438077-106.583174 277.410451-244.05724 246.519558-295.733931C678.734074 9.497511 651.680559 0 612.635238 0c-4.125181 0-8.410253 0.063956-12.759282 0.319781L255.215456 406.666133C314.151186 389.206063 379.002874 360.233859 442.479502 322.435686z" /></svg>